<svg xmlns="http://www.w3.org/2000/svg" viewBox="0 0 512 512">
  <defs>
    <linearGradient id="bg" x1="0" y1="0" x2="1" y2="1">
      <stop offset="0%" stop-color="#34d399"/>
      <stop offset="100%" stop-color="#059669"/>
    </linearGradient>
    <linearGradient id="coin" x1="0" y1="0" x2="0" y2="1">
      <stop offset="0%" stop-color="#fcd34d"/>
      <stop offset="100%" stop-color="#f59e0b"/>
    </linearGradient>
  </defs>

  <!-- Background -->
  <rect width="512" height="512" rx="96" fill="url(#bg)"/>

  <!-- Envelope body -->
  <rect x="80" y="172" width="352" height="224" rx="24" fill="#fff" opacity="0.95"/>

  <!-- Envelope flap -->
  <path d="M80 196c0-13.3 10.7-24 24-24h304c13.3 0 24 10.7 24 24L256 320Z" fill="#fff"/>

  <!-- Flap fold line -->
  <path d="M80 196 L256 320 L432 196" fill="none" stroke="#059669" stroke-width="6" opacity="0.2"/>

  <!-- Coin circle -->
  <circle cx="336" cy="296" r="52" fill="url(#coin)"/>
  <circle cx="336" cy="296" r="44" fill="none" stroke="#d97706" stroke-width="3" opacity="0.4"/>

  <!-- Dollar sign -->
  <path d="M336 268v4M336 320v4" stroke="#92400e" stroke-width="6" stroke-linecap="round"/>
  <path d="M320 282c0-8 6-14 16-14s16 5 16 12c0 8-8 10-16 12s-16 4-16 12c0 7 6 14 16 14s16-6 16-14" fill="none" stroke="#92400e" stroke-width="6" stroke-linecap="round" stroke-linejoin="round"/>
</svg>
